<svg width="180" height="155" viewBox="0 0 180 155" fill="none" xmlns="http://www.w3.org/2000/svg">
<path d="M8.67846 75.4055L49.776 53.648C50.5881 53.2181 51.3371 52.6782 52.0018 52.0437L91.9743 13.8881C100.958 5.31323 112.969 0.642233 125.386 0.895626L155.891 1.51819C168.249 1.77039 177.422 13.0597 175.139 25.2073L151.532 150.847C150.644 155.575 146.515 159 141.704 159H46.1455C42.376 159 38.9267 156.88 37.2239 153.517L4.43577 88.7607C1.97301 83.8967 3.86014 77.9564 8.67846 75.4055Z" fill="#9190FF"/>
<path d="M146.046 43.4475C150.489 43.4475 154.091 38.1986 154.091 31.7237C154.091 25.2489 150.489 20 146.046 20C141.602 20 138 25.2489 138 31.7237C138 38.1986 141.602 43.4475 146.046 43.4475Z" fill="white"/>
<path d="M154.047 30.4763C153.619 24.5883 150.201 20 146.046 20C141.657 20 138.09 25.1217 138.003 31.487L154.047 30.4763Z" fill="black"/>
<path d="M142.774 32.229C143.072 36.5047 145.305 39.8264 147.997 39.8134C150.842 39.7996 153.137 36.0679 153.169 31.4443L142.774 32.229Z" fill="black"/>
<path d="M138.229 31.4961L154.168 30.3467" stroke="black" stroke-width="1.22601" stroke-miterlimit="10" stroke-linecap="round"/>
<path d="M149.609 37.2183C150.498 37.2183 151.218 36.4978 151.218 35.6091C151.218 34.7204 150.498 34 149.609 34C148.72 34 148 34.7204 148 35.6091C148 36.4978 148.72 37.2183 149.609 37.2183Z" fill="white"/>
<path d="M147.411 34.8221C147.638 34.8221 147.822 34.6381 147.822 34.4111C147.822 34.184 147.638 34 147.411 34C147.184 34 147 34.184 147 34.4111C147 34.6381 147.184 34.8221 147.411 34.8221Z" fill="white"/>
<path d="M117.046 46.4475C121.489 46.4475 125.091 41.1986 125.091 34.7237C125.091 28.2489 121.489 23 117.046 23C112.602 23 109 28.2489 109 34.7237C109 41.1986 112.602 46.4475 117.046 46.4475Z" fill="white"/>
<path d="M125.047 33.4763C124.619 27.5883 121.201 23 117.046 23C112.657 23 109.09 28.1217 109.003 34.487L125.047 33.4763Z" fill="black"/>
<path d="M113.774 35.229C114.072 39.5047 116.305 42.8264 118.997 42.8134C121.842 42.7996 124.137 39.0679 124.169 34.4443L113.774 35.229Z" fill="black"/>
<path d="M109.229 34.4961L125.168 33.3467" stroke="black" stroke-width="1.22601" stroke-miterlimit="10" stroke-linecap="round"/>
<path d="M117.343 39.73C118.231 39.73 118.952 39.0096 118.952 38.1209C118.952 37.2322 118.231 36.5117 117.343 36.5117C116.454 36.5117 115.733 37.2322 115.733 38.1209C115.733 39.0096 116.454 39.73 117.343 39.73Z" fill="white"/>
<path d="M119.824 37.2489C120.051 37.2489 120.235 37.0648 120.235 36.8378C120.235 36.6108 120.051 36.4268 119.824 36.4268C119.597 36.4268 119.413 36.6108 119.413 36.8378C119.413 37.0648 119.597 37.2489 119.824 37.2489Z" fill="white"/>
</svg>
