<svg width="127" height="230" viewBox="0 0 127 230" fill="none" xmlns="http://www.w3.org/2000/svg">
<path d="M0 38.6802C0 17.3177 17.3177 0 38.6802 0H88.3198C109.682 0 127 17.3177 127 38.6802V230H0V38.6802Z" fill="#FFC10C"/>
<path d="M39.1356 83.5505C45.4399 83.5505 50.5506 76.1036 50.5506 66.9174C50.5506 57.7311 45.4399 50.2842 39.1356 50.2842C32.8313 50.2842 27.7207 57.7311 27.7207 66.9174C27.7207 76.1036 32.8313 83.5505 39.1356 83.5505Z" fill="white"/>
<path d="M82.329 83.3562C88.6333 83.3562 93.7439 75.9093 93.7439 66.723C93.7439 57.5368 88.6333 50.0898 82.329 50.0898C76.0247 50.0898 70.9141 57.5368 70.9141 66.723C70.9141 75.9093 76.0247 83.3562 82.329 83.3562Z" fill="white"/>
<path d="M50.4871 65.1475C49.8804 56.794 45.0307 50.2842 39.1363 50.2842C32.9092 50.2842 27.8475 57.5506 27.7246 66.5814L50.4871 65.1475Z" fill="black"/>
<path d="M93.6785 64.9532C93.0718 56.5996 88.2221 50.0898 82.3277 50.0898C76.1006 50.0898 71.0389 57.3563 70.916 66.3871L93.6785 64.9532Z" fill="black"/>
<path d="M34.4941 67.6318C34.917 73.698 38.0839 78.4107 41.9041 78.3923C45.9406 78.3727 49.1955 73.0783 49.2422 66.5186L34.4941 67.6318Z" fill="black"/>
<path d="M77.6875 67.4384C78.1104 73.5046 81.2772 78.2174 85.0974 78.1989C89.134 78.1793 92.3888 72.885 92.4356 66.3252L77.6875 67.4384Z" fill="black"/>
<path d="M28.0469 66.5907L50.6593 64.96" stroke="black" stroke-width="1.73942" stroke-miterlimit="10" stroke-linecap="round"/>
<path d="M71.2393 66.3973L93.8517 64.7666" stroke="black" stroke-width="1.73942" stroke-miterlimit="10" stroke-linecap="round"/>
<path d="M39.5584 74.0191C40.8192 74.0191 41.8414 72.997 41.8414 71.7361C41.8414 70.4753 40.8192 69.4531 39.5584 69.4531C38.2975 69.4531 37.2754 70.4753 37.2754 71.7361C37.2754 72.997 38.2975 74.0191 39.5584 74.0191Z" fill="white"/>
<path d="M83.283 73.566C84.5438 73.566 85.566 72.5438 85.566 71.283C85.566 70.0221 84.5438 69 83.283 69C82.0221 69 81 70.0221 81 71.283C81 72.5438 82.0221 73.566 83.283 73.566Z" fill="white"/>
<path d="M42.5832 70.1664C42.9053 70.1664 43.1664 69.9053 43.1664 69.5832C43.1664 69.2611 42.9053 69 42.5832 69C42.2611 69 42 69.2611 42 69.5832C42 69.9053 42.2611 70.1664 42.5832 70.1664Z" fill="white"/>
<path d="M86.374 70.5135C86.7531 70.5135 87.0604 70.2062 87.0604 69.8271C87.0604 69.448 86.7531 69.1406 86.374 69.1406C85.9948 69.1406 85.6875 69.448 85.6875 69.8271C85.6875 70.2062 85.9948 70.5135 86.374 70.5135Z" fill="white"/>
<path d="M48.9951 111.205C51.8961 113.784 54.7736 115.163 61.8532 114.854C68.9328 114.544 74.7319 111.48 76.0713 107.659" stroke="black" stroke-width="1.41827" stroke-miterlimit="10" stroke-linecap="round"/>
</svg>
