<svg width="977" height="123" viewBox="0 0 977 123" fill="none" xmlns="http://www.w3.org/2000/svg">
<path d="M58.484 122.352C20.852 122.352 0.272 97.46 0.272 61.004C0.272 24.352 21.636 0.0479906 58.484 0.0479906C95.528 0.0479906 116.696 24.352 116.696 61.004C116.696 97.46 95.92 122.352 58.484 122.352ZM58.484 106.672C86.12 106.672 98.86 88.248 98.86 60.808C98.86 34.152 85.924 15.924 58.484 15.924C31.044 15.924 18.108 34.152 18.108 60.808C18.108 88.052 30.652 106.672 58.484 106.672ZM198.664 120V96.088H197.096C192 112.356 179.848 122.352 163.972 122.352C143.392 122.352 134.18 108.828 134.18 88.836V28.468H151.232V84.72C151.232 97.46 156.524 106.672 171.224 106.672C187.492 106.672 198.272 96.48 198.272 80.8V28.468H215.324V120H198.664ZM256.332 120H239.28V28.468H255.744V54.34L257.116 54.536C261.82 34.544 271.228 27.488 285.34 27.488H288.868V46.304H284.164C264.368 46.304 256.332 54.144 256.332 74.724V120ZM387.533 17.884H361.465V62.964H387.729C405.565 62.964 413.013 55.908 413.013 40.424C413.013 24.744 406.545 17.884 387.533 17.884ZM389.689 78.056H361.465V120H343.433V2.4H389.297C416.933 2.4 430.849 15.14 430.849 40.228C430.849 62.18 416.345 78.056 389.689 78.056ZM463.242 120H446.19V28.468H462.654V54.34L464.026 54.536C468.73 34.544 478.138 27.488 492.25 27.488H495.778V46.304H491.074C471.278 46.304 463.242 54.144 463.242 74.724V120ZM551.257 122.352C522.249 122.352 505.393 103.732 505.393 73.94C505.393 43.952 523.425 26.116 551.257 26.116C578.893 26.116 597.121 43.952 597.121 73.94C597.121 103.732 580.265 122.352 551.257 122.352ZM551.257 40.816C532.441 40.816 522.445 53.164 522.445 73.744C522.445 94.324 531.657 107.456 551.061 107.456C570.465 107.456 580.069 94.324 580.069 73.744C580.069 53.164 570.073 40.816 551.257 40.816ZM680.858 63.16C677.722 49.636 671.45 41.208 654.986 41.208C637.738 41.208 627.154 52.38 627.154 74.332C627.154 94.52 637.15 107.26 655.77 107.26C672.626 107.26 678.114 97.068 681.446 84.72L697.126 88.836C693.01 109.808 680.466 122.352 655.966 122.352C627.154 122.352 609.71 104.908 609.71 74.528C609.71 44.148 627.938 26.116 655.378 26.116C681.054 26.116 693.01 38.268 696.734 59.828L680.858 63.16ZM755.086 39.64C739.014 39.64 729.214 48.656 727.254 66.884H780.762C779.978 49.44 771.942 39.64 755.086 39.64ZM755.87 122.156C727.45 122.156 710.006 105.3 710.006 74.92C710.006 44.344 727.842 26.116 755.478 26.116C782.918 26.116 796.638 42.972 796.638 68.256C796.638 71 796.442 75.116 796.05 79.232H727.058C728.43 97.852 738.23 108.044 755.87 108.044C772.334 108.044 778.018 99.812 780.958 89.62L795.854 93.736C791.346 111.18 779.586 122.156 755.87 122.156ZM850.506 122.352C821.89 122.352 811.894 110.396 808.17 92.168L823.654 89.032C826.79 100.988 833.454 109.416 850.702 109.416C863.638 109.416 870.106 104.516 870.302 95.696C870.302 87.072 864.226 83.348 845.018 80.016C821.302 75.704 812.482 67.276 812.482 52.772C812.482 36.7 824.242 26.116 847.566 26.116C871.674 26.116 880.102 36.504 884.218 52.968L868.538 56.3C865.598 43.56 859.13 38.856 847.174 38.856C835.022 38.856 828.946 43.756 828.946 51.792C828.946 59.044 833.65 64.14 851.682 67.08C877.946 71.784 886.766 80.408 886.766 95.108C886.766 111.376 875.986 122.352 850.506 122.352ZM940.084 122.352C911.468 122.352 901.472 110.396 897.748 92.168L913.232 89.032C916.368 100.988 923.032 109.416 940.28 109.416C953.216 109.416 959.684 104.516 959.88 95.696C959.88 87.072 953.804 83.348 934.596 80.016C910.88 75.704 902.06 67.276 902.06 52.772C902.06 36.7 913.82 26.116 937.144 26.116C961.252 26.116 969.68 36.504 973.796 52.968L958.116 56.3C955.176 43.56 948.708 38.856 936.752 38.856C924.6 38.856 918.524 43.756 918.524 51.792C918.524 59.044 923.228 64.14 941.26 67.08C967.524 71.784 976.344 80.408 976.344 95.108C976.344 111.376 965.564 122.352 940.084 122.352Z" fill="white"/>
</svg>
