<svg width="445" height="203" viewBox="0 0 445 203" fill="none" xmlns="http://www.w3.org/2000/svg">
<path d="M40.744 85.632C14.632 85.632 0.352 68.36 0.352 43.064C0.352 17.632 15.176 0.767993 40.744 0.767993C66.448 0.767993 81.136 17.632 81.136 43.064C81.136 68.36 66.72 85.632 40.744 85.632ZM40.744 74.752C59.92 74.752 68.76 61.968 68.76 42.928C68.76 24.432 59.784 11.784 40.744 11.784C21.704 11.784 12.728 24.432 12.728 42.928C12.728 61.832 21.432 74.752 40.744 74.752ZM138.012 84V67.408H136.924C133.388 78.696 124.956 85.632 113.94 85.632C99.6596 85.632 93.2676 76.248 93.2676 62.376V20.488H105.1V59.52C105.1 68.36 108.772 74.752 118.972 74.752C130.26 74.752 137.74 67.68 137.74 56.8V20.488H149.572V84H138.012ZM178.026 84H166.194V20.488H177.618V38.44L178.57 38.576C181.834 24.704 188.362 19.808 198.154 19.808H200.602V32.864H197.338C183.602 32.864 178.026 38.304 178.026 52.584V84ZM35.712 130.144H17.624V161.424H35.848C48.224 161.424 53.392 156.528 53.392 145.784C53.392 134.904 48.904 130.144 35.712 130.144ZM37.208 171.896H17.624V201H5.112V119.4H36.936C56.112 119.4 65.768 128.24 65.768 145.648C65.768 160.88 55.704 171.896 37.208 171.896ZM88.2452 201H76.4132V137.488H87.8372V155.44L88.7892 155.576C92.0532 141.704 98.5812 136.808 108.373 136.808H110.821V149.864H107.557C93.8212 149.864 88.2452 155.304 88.2452 169.584V201ZM149.317 202.632C129.189 202.632 117.493 189.712 117.493 169.04C117.493 148.232 130.005 135.856 149.317 135.856C168.493 135.856 181.141 148.232 181.141 169.04C181.141 189.712 169.445 202.632 149.317 202.632ZM149.317 146.056C136.261 146.056 129.325 154.624 129.325 168.904C129.325 183.184 135.717 192.296 149.181 192.296C162.645 192.296 169.309 183.184 169.309 168.904C169.309 154.624 162.373 146.056 149.317 146.056ZM239.243 161.56C237.067 152.176 232.715 146.328 221.291 146.328C209.323 146.328 201.979 154.08 201.979 169.312C201.979 183.32 208.915 192.16 221.835 192.16C233.531 192.16 237.339 185.088 239.651 176.52L250.531 179.376C247.675 193.928 238.971 202.632 221.971 202.632C201.979 202.632 189.875 190.528 189.875 169.448C189.875 148.368 202.523 135.856 221.563 135.856C239.379 135.856 247.675 144.288 250.259 159.248L239.243 161.56ZM290.749 145.24C279.597 145.24 272.797 151.496 271.437 164.144H308.565C308.021 152.04 302.445 145.24 290.749 145.24ZM291.293 202.496C271.573 202.496 259.469 190.8 259.469 169.72C259.469 148.504 271.845 135.856 291.021 135.856C310.061 135.856 319.581 147.552 319.581 165.096C319.581 167 319.445 169.856 319.173 172.712H271.301C272.253 185.632 279.053 192.704 291.293 192.704C302.717 192.704 306.661 186.992 308.701 179.92L319.037 182.776C315.909 194.88 307.749 202.496 291.293 202.496ZM356.959 202.632C337.103 202.632 330.167 194.336 327.583 181.688L338.327 179.512C340.503 187.808 345.127 193.656 357.095 193.656C366.071 193.656 370.559 190.256 370.695 184.136C370.695 178.152 366.479 175.568 353.151 173.256C336.695 170.264 330.575 164.416 330.575 154.352C330.575 143.2 338.735 135.856 354.919 135.856C371.647 135.856 377.495 143.064 380.351 154.488L369.471 156.8C367.431 147.96 362.943 144.696 354.647 144.696C346.215 144.696 341.999 148.096 341.999 153.672C341.999 158.704 345.263 162.24 357.775 164.28C375.999 167.544 382.119 173.528 382.119 183.728C382.119 195.016 374.639 202.632 356.959 202.632ZM419.115 202.632C399.259 202.632 392.323 194.336 389.739 181.688L400.483 179.512C402.659 187.808 407.283 193.656 419.251 193.656C428.227 193.656 432.715 190.256 432.851 184.136C432.851 178.152 428.635 175.568 415.307 173.256C398.851 170.264 392.731 164.416 392.731 154.352C392.731 143.2 400.891 135.856 417.075 135.856C433.803 135.856 439.651 143.064 442.507 154.488L431.627 156.8C429.587 147.96 425.099 144.696 416.803 144.696C408.371 144.696 404.155 148.096 404.155 153.672C404.155 158.704 407.419 162.24 419.931 164.28C438.155 167.544 444.275 173.528 444.275 183.728C444.275 195.016 436.795 202.632 419.115 202.632Z" fill="white"/>
</svg>
