<svg width="314" height="158" viewBox="0 0 314 158" fill="none" xmlns="http://www.w3.org/2000/svg">
<path d="M28.584 60.152C10.152 60.152 0.0720001 47.96 0.0720001 30.104C0.0720001 12.152 10.536 0.247995 28.584 0.247995C46.728 0.247995 57.096 12.152 57.096 30.104C57.096 47.96 46.92 60.152 28.584 60.152ZM28.584 52.472C42.12 52.472 48.36 43.448 48.36 30.008C48.36 16.952 42.024 8.024 28.584 8.024C15.144 8.024 8.808 16.952 8.808 30.008C8.808 43.352 14.952 52.472 28.584 52.472ZM97.2435 59V47.288H96.4755C93.9795 55.256 88.0275 60.152 80.2515 60.152C70.1715 60.152 65.6595 53.528 65.6595 43.736V14.168H74.0115V41.72C74.0115 47.96 76.6035 52.472 83.8035 52.472C91.7715 52.472 97.0515 47.48 97.0515 39.8V14.168H105.404V59H97.2435ZM125.489 59H117.137V14.168H125.201V26.84L125.873 26.936C128.177 17.144 132.785 13.688 139.697 13.688H141.425V22.904H139.121C129.425 22.904 125.489 26.744 125.489 36.824V59ZM25.032 105.984H12.264V128.064H25.128C33.864 128.064 37.512 124.608 37.512 117.024C37.512 109.344 34.344 105.984 25.032 105.984ZM26.088 135.456H12.264V156H3.432V98.4H25.896C39.432 98.4 46.248 104.64 46.248 116.928C46.248 127.68 39.144 135.456 26.088 135.456ZM62.1143 156H53.7623V111.168H61.8263V123.84L62.4983 123.936C64.8023 114.144 69.4103 110.688 76.3223 110.688H78.0503V119.904H75.7463C66.0503 119.904 62.1143 123.744 62.1143 133.824V156ZM105.224 157.152C91.0155 157.152 82.7595 148.032 82.7595 133.44C82.7595 118.752 91.5915 110.016 105.224 110.016C118.76 110.016 127.688 118.752 127.688 133.44C127.688 148.032 119.432 157.152 105.224 157.152ZM105.224 117.216C96.0075 117.216 91.1115 123.264 91.1115 133.344C91.1115 143.424 95.6235 149.856 105.128 149.856C114.632 149.856 119.336 143.424 119.336 133.344C119.336 123.264 114.44 117.216 105.224 117.216ZM168.701 128.16C167.165 121.536 164.093 117.408 156.029 117.408C147.581 117.408 142.397 122.88 142.397 133.632C142.397 143.52 147.293 149.76 156.413 149.76C164.669 149.76 167.357 144.768 168.989 138.72L176.669 140.736C174.653 151.008 168.509 157.152 156.509 157.152C142.397 157.152 133.853 148.608 133.853 133.728C133.853 118.848 142.781 110.016 156.221 110.016C168.797 110.016 174.653 115.968 176.477 126.528L168.701 128.16ZM205.058 116.64C197.186 116.64 192.386 121.056 191.426 129.984H217.634C217.25 121.44 213.314 116.64 205.058 116.64ZM205.442 157.056C191.522 157.056 182.978 148.8 182.978 133.92C182.978 118.944 191.714 110.016 205.25 110.016C218.69 110.016 225.41 118.272 225.41 130.656C225.41 132 225.314 134.016 225.122 136.032H191.33C192.002 145.152 196.802 150.144 205.442 150.144C213.506 150.144 216.29 146.112 217.73 141.12L225.026 143.136C222.818 151.68 217.058 157.056 205.442 157.056ZM251.795 157.152C237.779 157.152 232.883 151.296 231.059 142.368L238.643 140.832C240.179 146.688 243.443 150.816 251.891 150.816C258.227 150.816 261.395 148.416 261.491 144.096C261.491 139.872 258.515 138.048 249.107 136.416C237.491 134.304 233.171 130.176 233.171 123.072C233.171 115.2 238.931 110.016 250.355 110.016C262.163 110.016 266.291 115.104 268.307 123.168L260.627 124.8C259.187 118.56 256.019 116.256 250.163 116.256C244.211 116.256 241.234 118.656 241.234 122.592C241.234 126.144 243.539 128.64 252.371 130.08C265.235 132.384 269.555 136.608 269.555 143.808C269.555 151.776 264.275 157.152 251.795 157.152ZM295.67 157.152C281.654 157.152 276.758 151.296 274.934 142.368L282.518 140.832C284.054 146.688 287.318 150.816 295.766 150.816C302.102 150.816 305.27 148.416 305.366 144.096C305.366 139.872 302.39 138.048 292.982 136.416C281.366 134.304 277.046 130.176 277.046 123.072C277.046 115.2 282.806 110.016 294.23 110.016C306.038 110.016 310.166 115.104 312.182 123.168L304.502 124.8C303.062 118.56 299.894 116.256 294.038 116.256C288.086 116.256 285.109 118.656 285.109 122.592C285.109 126.144 287.414 128.64 296.246 130.08C309.11 132.384 313.43 136.608 313.43 143.808C313.43 151.776 308.15 157.152 295.67 157.152Z" fill="white"/>
</svg>
