<svg width="278" height="168" viewBox="0 0 278 168" fill="none" xmlns="http://www.w3.org/2000/svg">
<path d="M21.74 7.505H9.105V29.355H21.835C30.48 29.355 34.09 25.935 34.09 18.43C34.09 10.83 30.955 7.505 21.74 7.505ZM22.785 36.67H9.105V57H0.365V-2.26498e-06H22.595C35.99 -2.26498e-06 42.735 6.175 42.735 18.335C42.735 28.975 35.705 36.67 22.785 36.67ZM69.3677 58.14C55.3077 58.14 47.1377 49.115 47.1377 34.675C47.1377 20.14 55.8777 11.495 69.3677 11.495C82.7627 11.495 91.5977 20.14 91.5977 34.675C91.5977 49.115 83.4277 58.14 69.3677 58.14ZM69.3677 18.62C60.2477 18.62 55.4027 24.605 55.4027 34.58C55.4027 44.555 59.8677 50.92 69.2727 50.92C78.6777 50.92 83.3327 44.555 83.3327 34.58C83.3327 24.605 78.4877 18.62 69.3677 18.62ZM117.649 58.14C103.779 58.14 98.9342 52.345 97.1292 43.51L104.634 41.99C106.154 47.785 109.384 51.87 117.744 51.87C124.014 51.87 127.149 49.495 127.244 45.22C127.244 41.04 124.299 39.235 114.989 37.62C103.494 35.53 99.2192 31.445 99.2192 24.415C99.2192 16.625 104.919 11.495 116.224 11.495C127.909 11.495 131.994 16.53 133.989 24.51L126.389 26.125C124.964 19.95 121.829 17.67 116.034 17.67C110.144 17.67 107.199 20.045 107.199 23.94C107.199 27.455 109.479 29.925 118.219 31.35C130.949 33.63 135.224 37.81 135.224 44.935C135.224 52.82 129.999 58.14 117.649 58.14ZM146.627 43.795V19.475H139.882V12.635H146.627V0.189995H154.892V12.635H169.047V19.475H154.892V42.845C154.892 47.88 156.792 50.445 161.732 50.445C164.107 50.445 166.102 49.97 168.477 49.305L169.522 56.62C166.482 57.57 164.107 58.14 160.022 58.14C150.712 58.14 146.627 52.06 146.627 43.795ZM21.74 102.505H9.105V124.355H21.835C30.48 124.355 34.09 120.935 34.09 113.43C34.09 105.83 30.955 102.505 21.74 102.505ZM22.785 131.67H9.105V152H0.365V95H22.595C35.99 95 42.735 101.175 42.735 113.335C42.735 123.975 35.705 131.67 22.785 131.67ZM58.436 152H50.171V107.635H58.151V120.175L58.816 120.27C61.096 110.58 65.656 107.16 72.496 107.16H74.206V116.28H71.926C62.331 116.28 58.436 120.08 58.436 130.055V152ZM101.096 153.14C87.0362 153.14 78.8662 144.115 78.8662 129.675C78.8662 115.14 87.6062 106.495 101.096 106.495C114.491 106.495 123.326 115.14 123.326 129.675C123.326 144.115 115.156 153.14 101.096 153.14ZM101.096 113.62C91.9762 113.62 87.1312 119.605 87.1312 129.58C87.1312 139.555 91.5962 145.92 101.001 145.92C110.406 145.92 115.061 139.555 115.061 129.58C115.061 119.605 110.216 113.62 101.096 113.62ZM142.348 152C142.348 161.405 138.263 167.39 129.048 167.39C127.243 167.39 125.913 167.2 124.678 167.01L125.153 159.79C126.293 159.98 127.528 160.075 128.763 160.075C132.753 160.075 134.083 157.225 134.083 152.855V107.73H142.348V152ZM142.918 99.085H133.513V91.58H142.918V99.085ZM173.914 113.05C166.124 113.05 161.374 117.42 160.424 126.255H186.359C185.979 117.8 182.084 113.05 173.914 113.05ZM174.294 153.045C160.519 153.045 152.064 144.875 152.064 130.15C152.064 115.33 160.709 106.495 174.104 106.495C187.404 106.495 194.054 114.665 194.054 126.92C194.054 128.25 193.959 130.245 193.769 132.24H160.329C160.994 141.265 165.744 146.205 174.294 146.205C182.274 146.205 185.029 142.215 186.454 137.275L193.674 139.27C191.489 147.725 185.789 153.045 174.294 153.045ZM234.699 124.45C233.179 117.895 230.139 113.81 222.159 113.81C213.799 113.81 208.669 119.225 208.669 129.865C208.669 139.65 213.514 145.825 222.539 145.825C230.709 145.825 233.369 140.885 234.984 134.9L242.584 136.895C240.589 147.06 234.509 153.14 222.634 153.14C208.669 153.14 200.214 144.685 200.214 129.96C200.214 115.235 209.049 106.495 222.349 106.495C234.794 106.495 240.589 112.385 242.394 122.835L234.699 124.45ZM254.337 138.795V114.475H247.592V107.635H254.337V95.19H262.602V107.635H276.757V114.475H262.602V137.845C262.602 142.88 264.502 145.445 269.442 145.445C271.817 145.445 273.812 144.97 276.187 144.305L277.232 151.62C274.192 152.57 271.817 153.14 267.732 153.14C258.422 153.14 254.337 147.06 254.337 138.795Z" fill="white"/>
</svg>
