<svg width="397" height="245" viewBox="0 0 397 245" fill="none" xmlns="http://www.w3.org/2000/svg">
<path d="M30.712 11.144H12.624V42.424H30.848C43.224 42.424 48.392 37.528 48.392 26.784C48.392 15.904 43.904 11.144 30.712 11.144ZM32.208 52.896H12.624V82H0.112V0.399997H31.936C51.112 0.399997 60.768 9.24 60.768 26.648C60.768 41.88 50.704 52.896 32.208 52.896ZM98.8948 83.632C78.7668 83.632 67.0708 70.712 67.0708 50.04C67.0708 29.232 79.5828 16.856 98.8948 16.856C118.071 16.856 130.719 29.232 130.719 50.04C130.719 70.712 119.023 83.632 98.8948 83.632ZM98.8948 27.056C85.8388 27.056 78.9028 35.624 78.9028 49.904C78.9028 64.184 85.2948 73.296 98.7588 73.296C112.223 73.296 118.887 64.184 118.887 49.904C118.887 35.624 111.951 27.056 98.8948 27.056ZM168.014 83.632C148.158 83.632 141.222 75.336 138.638 62.688L149.382 60.512C151.558 68.808 156.182 74.656 168.15 74.656C177.126 74.656 181.614 71.256 181.75 65.136C181.75 59.152 177.534 56.568 164.206 54.256C147.75 51.264 141.63 45.416 141.63 35.352C141.63 24.2 149.79 16.856 165.974 16.856C182.702 16.856 188.55 24.064 191.406 35.488L180.526 37.8C178.486 28.96 173.998 25.696 165.702 25.696C157.27 25.696 153.054 29.096 153.054 34.672C153.054 39.704 156.318 43.24 168.83 45.28C187.054 48.544 193.174 54.528 193.174 64.728C193.174 76.016 185.694 83.632 168.014 83.632ZM209.498 63.096V28.28H199.842V18.488H209.498V0.671993H221.33V18.488H241.594V28.28H221.33V61.736C221.33 68.944 224.05 72.616 231.122 72.616C234.522 72.616 237.378 71.936 240.778 70.984L242.274 81.456C237.922 82.816 234.522 83.632 228.674 83.632C215.346 83.632 209.498 74.928 209.498 63.096ZM30.712 151.144H12.624V182.424H30.848C43.224 182.424 48.392 177.528 48.392 166.784C48.392 155.904 43.904 151.144 30.712 151.144ZM32.208 192.896H12.624V222H0.112V140.4H31.936C51.112 140.4 60.768 149.24 60.768 166.648C60.768 181.88 50.704 192.896 32.208 192.896ZM83.2452 222H71.4132V158.488H82.8372V176.44L83.7892 176.576C87.0532 162.704 93.5812 157.808 103.373 157.808H105.821V170.864H102.557C88.8212 170.864 83.2452 176.304 83.2452 190.584V222ZM144.317 223.632C124.189 223.632 112.493 210.712 112.493 190.04C112.493 169.232 125.005 156.856 144.317 156.856C163.493 156.856 176.141 169.232 176.141 190.04C176.141 210.712 164.445 223.632 144.317 223.632ZM144.317 167.056C131.261 167.056 124.325 175.624 124.325 189.904C124.325 204.184 130.717 213.296 144.181 213.296C157.645 213.296 164.309 204.184 164.309 189.904C164.309 175.624 157.373 167.056 144.317 167.056ZM203.371 222C203.371 235.464 197.523 244.032 184.331 244.032C181.747 244.032 179.843 243.76 178.075 243.488L178.755 233.152C180.387 233.424 182.155 233.56 183.923 233.56C189.635 233.56 191.539 229.48 191.539 223.224V158.624H203.371V222ZM204.187 146.248H190.723V135.504H204.187V146.248ZM248.562 166.24C237.41 166.24 230.61 172.496 229.25 185.144H266.378C265.834 173.04 260.258 166.24 248.562 166.24ZM249.106 223.496C229.386 223.496 217.282 211.8 217.282 190.72C217.282 169.504 229.658 156.856 248.834 156.856C267.874 156.856 277.394 168.552 277.394 186.096C277.394 188 277.258 190.856 276.986 193.712H229.114C230.066 206.632 236.866 213.704 249.106 213.704C260.53 213.704 264.474 207.992 266.514 200.92L276.85 203.776C273.722 215.88 265.562 223.496 249.106 223.496ZM335.579 182.56C333.403 173.176 329.051 167.328 317.627 167.328C305.659 167.328 298.315 175.08 298.315 190.312C298.315 204.32 305.251 213.16 318.171 213.16C329.867 213.16 333.675 206.088 335.987 197.52L346.867 200.376C344.011 214.928 335.307 223.632 318.307 223.632C298.315 223.632 286.211 211.528 286.211 190.448C286.211 169.368 298.859 156.856 317.899 156.856C335.715 156.856 344.011 165.288 346.595 180.248L335.579 182.56ZM363.693 203.096V168.28H354.037V158.488H363.693V140.672H375.525V158.488H395.789V168.28H375.525V201.736C375.525 208.944 378.245 212.616 385.317 212.616C388.717 212.616 391.573 211.936 394.973 210.984L396.469 221.456C392.117 222.816 388.717 223.632 382.869 223.632C369.541 223.632 363.693 214.928 363.693 203.096Z" fill="white"/>
</svg>
