<svg width="976" height="157" viewBox="0 0 976 157" fill="none" xmlns="http://www.w3.org/2000/svg">
<path d="M44.232 22.884H18.164V67.964H44.428C62.264 67.964 69.712 60.908 69.712 45.424C69.712 29.744 63.244 22.884 44.232 22.884ZM46.388 83.056H18.164V125H0.132V7.4H45.996C73.632 7.4 87.548 20.14 87.548 45.228C87.548 67.18 73.044 83.056 46.388 83.056ZM142.495 127.352C113.487 127.352 96.6314 108.732 96.6314 78.94C96.6314 48.952 114.663 31.116 142.495 31.116C170.131 31.116 188.359 48.952 188.359 78.94C188.359 108.732 171.503 127.352 142.495 127.352ZM142.495 45.816C123.679 45.816 113.683 58.164 113.683 78.744C113.683 99.324 122.895 112.456 142.299 112.456C161.703 112.456 171.307 99.324 171.307 78.744C171.307 58.164 161.311 45.816 142.495 45.816ZM242.108 127.352C213.492 127.352 203.496 115.396 199.772 97.168L215.256 94.032C218.392 105.988 225.056 114.416 242.304 114.416C255.24 114.416 261.708 109.516 261.904 100.696C261.904 92.072 255.828 88.348 236.62 85.016C212.904 80.704 204.084 72.276 204.084 57.772C204.084 41.7 215.844 31.116 239.168 31.116C263.276 31.116 271.704 41.504 275.82 57.968L260.14 61.3C257.2 48.56 250.732 43.856 238.776 43.856C226.624 43.856 220.548 48.756 220.548 56.792C220.548 64.044 225.252 69.14 243.284 72.08C269.548 76.784 278.368 85.408 278.368 100.108C278.368 116.376 267.588 127.352 242.108 127.352ZM301.894 97.756V47.58H287.978V33.468H301.894V7.79199H318.946V33.468H348.15V47.58H318.946V95.796C318.946 106.184 322.866 111.476 333.058 111.476C337.958 111.476 342.074 110.496 346.974 109.124L349.13 124.216C342.858 126.176 337.958 127.352 329.53 127.352C310.322 127.352 301.894 114.808 301.894 97.756ZM448.482 22.884H422.414V67.964H448.678C466.514 67.964 473.962 60.908 473.962 45.424C473.962 29.744 467.494 22.884 448.482 22.884ZM450.638 83.056H422.414V125H404.382V7.4H450.246C477.882 7.4 491.798 20.14 491.798 45.228C491.798 67.18 477.294 83.056 450.638 83.056ZM524.192 125H507.14V33.468H523.604V59.34L524.976 59.536C529.68 39.544 539.088 32.488 553.2 32.488H556.728V51.304H552.024C532.228 51.304 524.192 59.144 524.192 79.724V125ZM612.206 127.352C583.198 127.352 566.342 108.732 566.342 78.94C566.342 48.952 584.374 31.116 612.206 31.116C639.842 31.116 658.07 48.952 658.07 78.94C658.07 108.732 641.214 127.352 612.206 127.352ZM612.206 45.816C593.39 45.816 583.394 58.164 583.394 78.744C583.394 99.324 592.606 112.456 612.01 112.456C631.414 112.456 641.018 99.324 641.018 78.744C641.018 58.164 631.022 45.816 612.206 45.816ZM697.315 125C697.315 144.404 688.887 156.752 669.875 156.752C666.151 156.752 663.407 156.36 660.859 155.968L661.839 141.072C664.191 141.464 666.739 141.66 669.287 141.66C677.519 141.66 680.263 135.78 680.263 126.764V33.664H697.315V125ZM698.491 15.828H679.087V0.343993H698.491V15.828ZM762.442 44.64C746.37 44.64 736.57 53.656 734.61 71.884H788.118C787.334 54.44 779.298 44.64 762.442 44.64ZM763.226 127.156C734.806 127.156 717.362 110.3 717.362 79.92C717.362 49.344 735.198 31.116 762.834 31.116C790.274 31.116 803.994 47.972 803.994 73.256C803.994 76 803.798 80.116 803.406 84.232H734.414C735.786 102.852 745.586 113.044 763.226 113.044C779.69 113.044 785.374 104.812 788.314 94.62L803.21 98.736C798.702 116.18 786.942 127.156 763.226 127.156ZM887.85 68.16C884.714 54.636 878.442 46.208 861.978 46.208C844.73 46.208 834.146 57.38 834.146 79.332C834.146 99.52 844.142 112.26 862.762 112.26C879.618 112.26 885.106 102.068 888.438 89.72L904.118 93.836C900.002 114.808 887.458 127.352 862.958 127.352C834.146 127.352 816.702 109.908 816.702 79.528C816.702 49.148 834.93 31.116 862.37 31.116C888.046 31.116 900.002 43.268 903.726 64.828L887.85 68.16ZM928.367 97.756V47.58H914.451V33.468H928.367V7.79199H945.419V33.468H974.623V47.58H945.419V95.796C945.419 106.184 949.339 111.476 959.531 111.476C964.431 111.476 968.547 110.496 973.447 109.124L975.603 124.216C969.331 126.176 964.431 127.352 956.003 127.352C936.795 127.352 928.367 114.808 928.367 97.756Z" fill="white"/>
</svg>
