<?xml version="1.0" encoding="UTF-8"?>
<svg id="Layer_2" data-name="Layer 2" xmlns="http://www.w3.org/2000/svg" width="141.5" height="30" viewBox="0 0 141.5 30">
  <g id="a">
    <path d="M124.71,29.96c4.32,0,6.38-2.2,7.14-5.05l-3.92-1.1c-.37,1.23-1.07,2.26-3.16,2.26s-3.32-1-3.62-3.26h10.77c.07-.87.07-1.4.07-2.09,0-4.28-2.36-7.38-7.21-7.38-5.12,0-8.14,3.19-8.14,8.64s3.32,7.97,8.08,7.97M124.64,17.1c2.03,0,3.06,1.07,3.19,3.16h-6.65c.3-2.23,1.46-3.16,3.45-3.16M107.48,24.58c0,2.99,1.53,5.42,5.19,5.42,1.73,0,2.53-.23,3.73-.6l-.5-4.19c-.57.13-1.36.37-2.06.37-1.36,0-1.83-.6-1.83-1.86v-6.15h4.15v-3.79h-4.15v-3.95h-4.52v3.95h-1.83v3.79h1.83v7.01h0ZM104.56,13.78h-4.56v15.76h4.56v-15.76ZM104.62,9.16h-4.72v2.96h4.72v-2.96ZM93.52,29.53h4.52v-15.76h-4.52v9.24c0,1.83-1.07,2.89-2.89,2.89s-2.62-1.26-2.62-2.89v-9.24h-4.56v10.54c0,3.42,1.46,5.68,4.89,5.68,2.53,0,4.39-1.26,5.12-4.85h.07v4.39h0ZM73.98,29.99c5.78,0,8.34-2.46,8.34-6.25,0-2.82-1.5-5.32-7.18-6.22-4.19-.63-4.72-1.43-4.72-2.46,0-1.16.93-1.93,2.79-1.93,2.4,0,3.42,1.1,3.99,3.36l4.72-.96c-.7-3.59-2.96-6.42-8.44-6.42s-7.91,2.29-7.91,6.05c0,3.16,1.76,5.45,7.28,6.28,3.56.53,4.59,1.2,4.59,2.46s-1.13,1.96-3.12,1.96c-2.49,0-4.28-1.29-4.75-3.69l-4.69.93c.46,3.62,2.66,6.85,9.11,6.88M54.7,9.16h-4.56v20.37h4.56v-6.31h.2l5.19,6.31h5.35v-.07l-6.88-7.94,6.58-7.68v-.07h-5.25l-4.92,6.15h-.26v-10.77h0ZM44.53,20.62l4.39-.63c-.63-4.22-2.69-6.65-7.64-6.65s-8.18,3.09-8.18,8.41,3.29,8.24,8.27,8.24c4.72,0,7.01-2.62,7.55-6.75l-4.35-.83c-.4,1.99-1.2,3.42-3.29,3.42s-3.52-1.4-3.52-4.22,1.46-4.15,3.49-4.15,2.92,1.33,3.29,3.16M31.81,13.78h-4.56v15.76h4.56v-15.76ZM31.87,9.16h-4.72v2.96h4.72v-2.96ZM25.32,9.16h-4.56v20.37h4.56V9.15h0ZM10.07,30c5.32,0,8.94-3.62,9.47-8.77l-4.56-.66c-.57,3.26-1.99,5.15-4.95,5.15-3.49,0-5.25-2.46-5.25-6.22,0-3.32,1.76-6.05,5.22-6.05,2.92,0,4.49,1.83,4.95,4.95l4.62-.76c-.57-5.15-4.06-8.51-9.44-8.51C4.12,9.13,0,13.32,0,19.5s3.89,10.5,10.07,10.5" style="fill: #1d1d1b; stroke-width: 0px;"/>
    <path d="M136.77,12.8h.05c.49-.91,1.31-1.55,2.29-2.25,1.39-1.01,2.4-2.04,2.4-3.48,0-1.58-.91-2.49-2.31-2.49-1.31,0-2.02.6-2.38,1.85h-.05c-.38-1.25-1.07-1.85-2.37-1.85-1.43,0-2.32.91-2.32,2.49,0,1.44,1.01,2.48,2.41,3.48.97.71,1.78,1.34,2.3,2.25" style="fill: #9190ff; stroke-width: 0px;"/>
    <path d="M136.77,10.51h.05c.49-.91,1.31-1.55,2.29-2.25,1.39-1.01,2.4-2.04,2.4-3.48,0-1.58-.91-2.49-2.31-2.49-1.31,0-2.02.6-2.38,1.85h-.05c-.38-1.25-1.07-1.85-2.37-1.85-1.43,0-2.32.91-2.32,2.49,0,1.44,1.01,2.48,2.41,3.48.97.71,1.78,1.34,2.3,2.25" style="fill: #f60; stroke-width: 0px;"/>
    <path d="M136.77,8.22h.05c.49-.91,1.31-1.55,2.29-2.25,1.39-1.01,2.4-2.04,2.4-3.48,0-1.58-.91-2.49-2.31-2.49-1.31,0-2.02.6-2.38,1.85h-.05c-.38-1.25-1.07-1.85-2.37-1.85-1.43,0-2.32.91-2.32,2.49,0,1.44,1.01,2.48,2.41,3.48.97.71,1.78,1.34,2.3,2.25" style="fill: #ffc10c; stroke-width: 0px;"/>
  </g>
</svg>
