<?xml version="1.0" encoding="UTF-8"?>
<svg id="a" xmlns="http://www.w3.org/2000/svg" viewBox="0 0 283.46 85.04">
  <defs>
    <style>.b{fill:#17191a;}</style>
  </defs>
  <g>
    <path class="b"
      d="M20.25,43.66c0-11.2,7.47-18.79,18.37-18.79,9.76,0,16.08,6.08,17.11,15.42l-8.37,1.39c-.84-5.66-3.67-8.98-8.98-8.98-6.26,0-9.46,4.94-9.46,10.96,0,6.81,3.19,11.27,9.52,11.27,5.36,0,7.95-3.43,8.98-9.34l8.25,1.21c-.96,9.34-7.53,15.9-17.17,15.9-11.2,0-18.25-7.77-18.25-19.04Z" />
    <path class="b" d="M66.15,61.85h-8.25V24.92h8.25V61.85Z" />
    <path class="b" d="M69.46,30.28v-5.36h8.55v5.36h-8.55Zm.18,31.57v-28.55h8.25v28.55h-8.25Z" />
    <path class="b"
      d="M95,39.98c-3.67,0-6.33,2.29-6.33,7.53s2.53,7.65,6.39,7.65,5.24-2.59,5.96-6.2l7.89,1.51c-.96,7.47-5.12,12.23-13.67,12.23-9.04,0-15-5.06-15-14.94s5.84-15.24,14.82-15.24,12.71,4.4,13.86,12.05l-7.95,1.14c-.66-3.31-2.29-5.72-5.96-5.72Z" />
    <path class="b"
      d="M119.4,44.44h.48l8.92-11.14h9.52v.12l-11.93,13.92,12.47,14.4v.12h-9.7l-9.4-11.45h-.36v11.45h-8.25V24.92h8.25v19.52Z" />
    <path class="b"
      d="M137.83,50.22l8.49-1.69c.84,4.34,4.1,6.69,8.61,6.69,3.61,0,5.66-1.26,5.66-3.55s-1.87-3.49-8.31-4.46c-10-1.51-13.19-5.66-13.19-11.39,0-6.81,4.88-10.96,14.34-10.96,9.94,0,14.04,5.12,15.3,11.63l-8.55,1.75c-1.02-4.1-2.89-6.08-7.23-6.08-3.37,0-5.06,1.39-5.06,3.49,0,1.87,.96,3.31,8.55,4.46,10.3,1.63,13.01,6.14,13.01,11.26,0,6.87-4.64,11.33-15.12,11.33-11.69-.06-15.66-5.9-16.51-12.47Z" />
    <path class="b"
      d="M189.75,53.9h-.12c-1.33,6.51-4.7,8.79-9.28,8.79-6.2,0-8.86-4.1-8.86-10.3v-19.1h8.25v16.75c0,2.95,1.33,5.24,4.76,5.24s5.24-1.93,5.24-5.24v-16.75h8.19v28.55h-8.19v-7.95Z" />
    <path class="b" d="M201.32,30.28v-5.36h8.55v5.36h-8.55Zm.18,31.57v-28.55h8.25v28.55h-8.25Z" />
    <path class="b"
      d="M215.05,40.16h-3.31v-6.87h3.31v-7.17h8.19v7.17h7.53v6.87h-7.53v11.14c0,2.29,.84,3.37,3.31,3.37,1.27,0,2.71-.42,3.73-.66l.9,7.59c-2.17,.66-3.61,1.08-6.75,1.08-6.63,0-9.4-4.4-9.4-9.82v-12.71Z" />
    <path class="b"
      d="M231.62,48.18c0-9.88,5.48-15.66,14.76-15.66,8.79,0,13.07,5.6,13.07,13.37,0,1.27,0,2.23-.12,3.8h-19.52c.54,4.1,2.71,5.9,6.57,5.9s5.06-1.87,5.72-4.1l7.11,1.99c-1.39,5.18-5.12,9.16-12.95,9.16-8.61,0-14.64-4.94-14.64-14.46Zm8.25-3.13h12.05c-.24-3.8-2.11-5.72-5.78-5.72s-5.72,1.69-6.26,5.72Z" />
  </g>
  <g>
    <path class="b" d="M247.75,22.35h6.07v2.08h-1.93v5.26h-2.2v-5.26h-1.93v-2.08Z" />
    <path class="b"
      d="M256.21,29.68h-2.08v-7.34h3.52l.69,2.46c.13,.46,.33,1.38,.5,2.32h.02c.17-.95,.37-1.9,.51-2.42l.64-2.36h3.2v7.34h-2.2v-2.69c0-.93,.05-1.97,.09-2.87h-.02c-.24,1.03-.54,2.23-.89,3.49l-.59,2.08h-1.97l-.56-2.14c-.34-1.33-.61-2.43-.86-3.42h-.02c.02,.9,.02,1.94,.02,2.87v2.69Z" />
  </g>
</svg>