<svg width="15" height="15" viewBox="0 0 11 10" fill="none" xmlns="http://www.w3.org/2000/svg">
<path d="M5.41406 9.40991C2.88562 9.40991 0.79425 7.31854 0.79425 4.7901C0.79425 2.26166 2.88092 0.174988 5.40936 0.174988C7.93781 0.174988 10.0339 2.26166 10.0339 4.7901C10.0339 7.31854 7.9425 9.40991 5.41406 9.40991ZM3.96655 6.67938C4.09814 6.67938 4.20624 6.63708 4.29553 6.54779L5.41406 5.42456L6.53729 6.54779C6.62189 6.63708 6.73468 6.67938 6.86157 6.67938C7.11066 6.67938 7.30334 6.48199 7.30334 6.23291C7.30334 6.11542 7.26105 6.00732 7.17175 5.92273L6.04382 4.7948L7.17645 3.66217C7.26575 3.57288 7.30804 3.46948 7.30804 3.35199C7.30804 3.1076 7.11536 2.91492 6.86627 2.91492C6.74408 2.91492 6.64539 2.95251 6.55139 3.04181L5.41406 4.17444L4.28143 3.04651C4.19684 2.96191 4.09814 2.91962 3.96655 2.91962C3.72217 2.91962 3.52948 3.1076 3.52948 3.35669C3.52948 3.47418 3.57648 3.58228 3.66107 3.66687L4.789 4.7948L3.66107 5.92743C3.57648 6.01202 3.52948 6.12012 3.52948 6.23291C3.52948 6.48199 3.72217 6.67938 3.96655 6.67938Z" fill="currentColor"/>
</svg>
