<svg width="100" height="16" viewBox="0 0 100 16" fill="none" xmlns="http://www.w3.org/2000/svg">
  <path
    d="M7.59476 15.7722C2.93263 15.7722 0 12.5324 0 7.83586C0 3.16448 3.10808 0 7.64489 0C11.7055 0 14.3373 2.53661 14.7634 6.42943L11.2793 7.00707C10.9284 4.64627 9.75037 3.26494 7.54463 3.26494C4.93785 3.26494 3.60939 5.32437 3.60939 7.83586C3.60939 10.6739 4.93785 12.5324 7.56969 12.5324C9.8005 12.5324 10.8783 11.1008 11.3044 8.63954L14.7383 9.14184C14.3373 13.0347 11.6052 15.7722 7.59476 15.7722ZM19.1102 0.025115V15.4206H15.6763V0.025115H19.1102ZM24.0584 2.26034H20.4991V0.025115H24.0584V2.26034ZM24.0082 15.4206H20.5743V3.51609H24.0082V15.4206ZM33.6143 8.68977C33.3386 7.30845 32.6618 6.30385 31.1328 6.30385C29.6039 6.30385 28.501 7.25822 28.501 9.44322C28.501 11.578 29.5537 12.6328 31.1579 12.6328C32.737 12.6328 33.3386 11.5529 33.6394 10.046L36.9229 10.6739C36.5219 13.7881 34.7924 15.7722 31.2331 15.7722C27.4733 15.7722 24.9919 13.6625 24.9919 9.54368C24.9919 5.52529 27.4232 3.1896 31.1579 3.1896C34.8926 3.1896 36.4467 5.02299 36.9229 8.21259L33.6143 8.68977ZM41.2872 0.025115V8.16236H41.4877L45.1977 3.51609H49.158V3.56632L44.1951 9.36787L49.3836 15.3703V15.4206H45.3481L41.4375 10.6487H41.2872V15.4206H37.8532V0.025115H41.2872ZM55.8201 15.7722C50.9574 15.7471 49.3031 13.3109 48.9522 10.5734L52.4864 9.87017C52.8373 11.6784 54.1909 12.6579 56.0707 12.6579C57.5747 12.6579 58.4269 12.1305 58.4269 11.1761C58.4269 10.2218 57.6499 9.71948 54.9679 9.31764C50.8071 8.68977 49.4786 6.95684 49.4786 4.57092C49.4786 1.73293 51.5089 0 55.4441 0C59.5799 0 61.2843 2.13477 61.8107 4.84718L58.2514 5.57552C57.8253 3.8677 57.0483 3.03891 55.2436 3.03891C53.8399 3.03891 53.1381 3.61655 53.1381 4.49557C53.1381 5.27414 53.5392 5.8769 56.6974 6.35408C60.9835 7.03218 62.1115 8.91581 62.1115 11.0506C62.1115 13.9137 60.1814 15.7722 55.8201 15.7722ZM70.5598 15.4206V12.1054H70.5096C69.9582 14.8178 68.5545 15.7722 66.6496 15.7722C64.0679 15.7722 62.965 14.0644 62.965 11.4775V3.51609H66.3989V10.498C66.3989 11.7287 66.9504 12.683 68.3791 12.683C69.7577 12.683 70.5598 11.8794 70.5598 10.498V3.51609H73.9686V15.4206H70.5598ZM78.9368 2.26034H75.3776V0.025115H78.9368V2.26034ZM78.8867 15.4206H75.4527V3.51609H78.8867V15.4206ZM81.099 11.6784V6.3792H79.7204V3.51609H81.099V0.527414H84.5079V3.51609H87.641V6.3792H84.5079V11.0255C84.5079 11.9798 84.8588 12.4319 85.8865 12.4319C86.4128 12.4319 87.0144 12.2561 87.4405 12.1556L87.8165 15.3201C86.9141 15.5964 86.3126 15.7722 85.0092 15.7722C82.252 15.7722 81.099 13.9388 81.099 11.6784ZM94.0379 6.02759C92.534 6.02759 91.6567 6.7308 91.4312 8.41351H96.4442C96.3439 6.83126 95.5669 6.02759 94.0379 6.02759ZM94.0881 15.7471C90.5037 15.7471 87.9972 13.6876 87.9972 9.71948C87.9972 5.60063 90.2781 3.1896 94.1382 3.1896C97.7977 3.1896 99.5773 5.52529 99.5773 8.76512C99.5773 9.29253 99.5773 9.69437 99.5272 10.3474H91.4061C91.6317 12.0552 92.534 12.8086 94.1382 12.8086C95.7173 12.8086 96.2437 12.0301 96.5194 11.1008L99.4771 11.9296C98.9006 14.0895 97.3465 15.7471 94.0881 15.7471Z"
    fill="#ffffff" />
</svg>