<svg width="17" height="23" viewBox="0 0 17 23" fill="none" xmlns="http://www.w3.org/2000/svg">
<path d="M8.4786 22.2497H8.56632C9.45376 20.67 10.9287 19.561 12.6852 18.337C15.1905 16.5899 17 14.7905 17 12.2902C17 9.5388 15.3639 7.95911 12.8382 7.95911C10.4738 7.95911 9.20486 9.00526 8.54388 11.1813H8.45615C7.77477 9.00526 6.52622 7.95911 4.1842 7.95911C1.61574 7.95911 0 9.5388 0 12.2902C0 14.7905 1.81161 16.6005 4.33723 18.337C6.08354 19.5714 7.54628 20.67 8.4786 22.2497Z" fill="#9190FF"/>
<path d="M8.4786 18.2747H8.56632C9.45376 16.6951 10.9287 15.5861 12.6852 14.3622C15.1905 12.6151 17 10.8157 17 8.31535C17 5.56395 15.3639 3.98425 12.8382 3.98425C10.4738 3.98425 9.20486 5.03041 8.54388 7.20642H8.45615C7.77477 5.03041 6.52622 3.98425 4.1842 3.98425C1.61574 3.98425 0 5.56395 0 8.31535C0 10.8157 1.81161 12.6255 4.33723 14.3622C6.08354 15.5967 7.54628 16.6951 8.4786 18.2747Z" fill="#FF6600"/>
<path d="M8.4786 14.2905H8.56632C9.45376 12.7108 10.9287 11.6019 12.6852 10.3779C15.1905 8.63082 17 6.83142 17 4.3311C17 1.5797 15.3639 0 12.8382 0C10.4738 0 9.20486 1.04615 8.54388 3.22217H8.45615C7.77477 1.04615 6.52622 0 4.1842 0C1.61574 0 0 1.5797 0 4.3311C0 6.83142 1.81161 8.64128 4.33723 10.3779C6.08354 11.6124 7.54628 12.7108 8.4786 14.2905Z" fill="#FFC10C"/>
</svg>
