<svg width="66" height="69" viewBox="0 0 66 69" fill="none" xmlns="http://www.w3.org/2000/svg">
<path d="M31.3669 94.6684C49.2426 95.4097 64.6094 74.8951 65.6897 48.8477C66.7699 22.8003 53.1546 1.0837 35.2789 0.342347C17.4032 -0.399011 2.03638 20.1156 0.956118 46.163C-0.124146 72.2104 13.4912 93.927 31.3669 94.6684Z" fill="white"/>
<path d="M12.8164 23.2425C13.3021 40.4928 21.7274 54.2281 32.5616 54.6249C44.0094 55.0441 53.8612 40.4149 54.7651 21.8202L12.8164 23.2425Z" fill="black"/>
<path d="M37.4735 31.3011C41.0487 31.4494 44.0671 28.6714 44.2154 25.0962C44.3636 21.5211 41.5856 18.5027 38.0105 18.3544C34.4353 18.2061 31.4169 20.9842 31.2686 24.5593C31.1204 28.1344 33.8984 31.1528 37.4735 31.3011Z" fill="white"/>
<path d="M28.9461 35.0595C30.0211 35.1041 30.9287 34.2688 30.9733 33.1938C31.0178 32.1188 30.1825 31.2112 29.1076 31.1667C28.0326 31.1221 27.125 31.9574 27.0804 33.0324C27.0358 34.1073 27.8711 35.0149 28.9461 35.0595Z" fill="white"/>
<path d="M61.5508 23.0859C60.3224 11.1593 51.9881 1.03646 35.2746 0.3433C17.6177 -0.388982 7.43036 9.28387 6.5505 22.0859L61.5508 23.0859Z" fill="black"/>
<path d="M6.44952 22.311L61.4731 23.0128" stroke="black" stroke-width="2.82809" stroke-miterlimit="10" stroke-linecap="round"/>
</svg>
