<svg width="100" height="16" viewBox="0 0 100 16" fill="none" xmlns="http://www.w3.org/2000/svg">
  <path d="M7.60983 15.7722C2.93845 15.7722 0 12.5324 0 7.83586C0 3.16448 3.11425 0 7.66006 0C11.7287 0 14.3657 2.53661 14.7927 6.42943L11.3017 7.00707C10.9501 4.64627 9.76972 3.26494 7.5596 3.26494C4.94765 3.26494 3.61655 5.32437 3.61655 7.83586C3.61655 10.6739 4.94764 12.5324 7.58471 12.5324C9.81994 12.5324 10.8999 11.1008 11.3268 8.63954L14.7676 9.14184C14.3657 13.0347 11.6282 15.7722 7.60983 15.7722ZM19.1482 0.025115V15.4206H15.7074V0.025115H19.1482ZM24.1061 2.26034H20.5398V0.025115H24.1061V2.26034ZM24.0559 15.4206H20.6151V3.51609H24.0559V15.4206ZM33.681 8.68977C33.4047 7.30845 32.7266 6.30385 31.1946 6.30385C29.6626 6.30385 28.5575 7.25822 28.5575 9.44322C28.5575 11.578 29.6124 12.6328 31.2197 12.6328C32.802 12.6328 33.4047 11.5529 33.7061 10.046L36.9962 10.6739C36.5943 13.7881 34.8614 15.7722 31.2951 15.7722C27.5278 15.7722 25.0414 13.6625 25.0414 9.54368C25.0414 5.52529 27.4776 3.1896 31.2197 3.1896C34.9619 3.1896 36.519 5.02299 36.9962 8.21259L33.681 8.68977ZM41.3691 0.025115V8.16236H41.57L45.2874 3.51609H49.2556V3.56632L44.2828 9.36787L49.4816 15.3703V15.4206H45.4381L41.5198 10.6487H41.3691V15.4206H37.9283V0.025115H41.3691ZM55.9308 15.7722C51.0585 15.7471 49.401 13.3109 49.0494 10.5734L52.5906 9.87017C52.9422 11.6784 54.2984 12.6579 56.182 12.6579C57.6889 12.6579 58.5428 12.1305 58.5428 11.1761C58.5428 10.2218 57.7642 9.71948 55.0769 9.31764C50.9079 8.68977 49.5768 6.95684 49.5768 4.57092C49.5768 1.73293 51.6111 0 55.5541 0C59.6981 0 61.4059 2.13477 61.9333 4.84718L58.367 5.57552C57.94 3.8677 57.1615 3.03891 55.3532 3.03891C53.9468 3.03891 53.2435 3.61655 53.2435 4.49557C53.2435 5.27414 53.6454 5.8769 56.8099 6.35408C61.1045 7.03218 62.2347 8.91581 62.2347 11.0506C62.2347 13.9137 60.3008 15.7722 55.9308 15.7722ZM70.6998 15.4206V12.1054H70.6495C70.097 14.8178 68.6906 15.7722 66.7818 15.7722C64.195 15.7722 63.0899 14.0644 63.0899 11.4775V3.51609H66.5307V10.498C66.5307 11.7287 67.0832 12.683 68.5148 12.683C69.8961 12.683 70.6998 11.8794 70.6998 10.498V3.51609H74.1154V15.4206H70.6998ZM79.0934 2.26034H75.5271V0.025115H79.0934V2.26034ZM79.0432 15.4206H75.6025V3.51609H79.0432V15.4206ZM81.2599 11.6784V6.3792H79.8786V3.51609H81.2599V0.527414H84.6756V3.51609H87.8149V6.3792H84.6756V11.0255C84.6756 11.9798 85.0272 12.4319 86.0569 12.4319C86.5843 12.4319 87.187 12.2561 87.614 12.1556L87.9907 15.3201C87.0866 15.5964 86.4838 15.7722 85.1778 15.7722C82.4152 15.7722 81.2599 13.9388 81.2599 11.6784ZM94.2245 6.02759C92.7176 6.02759 91.8386 6.7308 91.6126 8.41351H96.6355C96.5351 6.83126 95.7565 6.02759 94.2245 6.02759ZM94.2747 15.7471C90.6833 15.7471 88.1718 13.6876 88.1718 9.71948C88.1718 5.60063 90.4573 3.1896 94.325 3.1896C97.9917 3.1896 99.7749 5.52529 99.7749 8.76512C99.7749 9.29253 99.7749 9.69437 99.7247 10.3474H91.5874C91.8135 12.0552 92.7176 12.8086 94.325 12.8086C95.9072 12.8086 96.4346 12.0301 96.7109 11.1008L99.6745 11.9296C99.0968 14.0895 97.5397 15.7471 94.2747 15.7471Z" fill="#17191A"/>
</svg>
