<svg width="9" height="12" viewBox="0 0 9 12" fill="none" xmlns="http://www.w3.org/2000/svg">
<path d="M4.51693 11.7053H4.56308C5.02993 10.8743 5.80586 10.2909 6.7299 9.64694C8.0478 8.72783 8.99974 7.78127 8.99974 6.46594C8.99974 5.01852 8.13902 4.1875 6.81038 4.1875C5.56653 4.1875 4.89899 4.73785 4.55127 5.88257H4.50512C4.14667 4.73785 3.48985 4.1875 2.2578 4.1875C0.906622 4.1875 0.0566406 5.01852 0.0566406 6.46594C0.0566406 7.78127 1.00966 8.73342 2.3383 9.64694C3.25698 10.2963 4.02647 10.8743 4.51693 11.7053Z" fill="#9190FF"/>
<path d="M4.51693 9.6134H4.56308C5.02993 8.7824 5.80586 8.199 6.7299 7.55515C8.0478 6.63607 8.99974 5.68946 8.99974 4.37414C8.99974 2.92673 8.13902 2.0957 6.81038 2.0957C5.56653 2.0957 4.89899 2.64605 4.55127 3.79077H4.50512C4.14667 2.64605 3.48985 2.0957 2.2578 2.0957C0.906622 2.0957 0.0566406 2.92673 0.0566406 4.37414C0.0566406 5.68946 1.00966 6.64157 2.3383 7.55515C3.25698 8.20459 4.02647 8.7824 4.51693 9.6134Z" fill="#FF6600"/>
<path d="M4.51693 7.51775H4.56308C5.02993 6.68672 5.80586 6.10335 6.7299 5.45945C8.0478 4.54037 8.99974 3.59377 8.99974 2.27844C8.99974 0.831023 8.13902 0 6.81038 0C5.56653 0 4.89899 0.550345 4.55127 1.69507H4.50512C4.14667 0.550345 3.48985 0 2.2578 0C0.906622 0 0.0566406 0.831023 0.0566406 2.27844C0.0566406 3.59377 1.00966 4.54587 2.3383 5.45945C3.25698 6.10886 4.02647 6.68672 4.51693 7.51775Z" fill="#FFC10C"/>
</svg>
