<svg width="66" height="69" viewBox="0 0 66 69" fill="none" xmlns="http://www.w3.org/2000/svg">
<path d="M30.8161 94.6684C48.6918 95.4097 64.0586 74.8951 65.1389 48.8477C66.2192 22.8003 52.6038 1.0837 34.7281 0.342347C16.8524 -0.399011 1.4856 20.1156 0.405337 46.163C-0.674927 72.2104 12.9404 93.927 30.8161 94.6684Z" fill="white"/>
<path d="M12.2656 23.2425C12.7513 40.4928 21.1766 54.2281 32.0108 54.6249C43.4587 55.0441 53.3104 40.4149 54.2144 21.8202L12.2656 23.2425Z" fill="black"/>
<path d="M27.4735 32.3011C31.0487 32.4494 34.0671 29.6714 34.2154 26.0962C34.3636 22.5211 31.5856 19.5027 28.0105 19.3544C24.4353 19.2061 21.4169 21.9842 21.2686 25.5593C21.1204 29.1344 23.8984 32.1528 27.4735 32.3011Z" fill="white"/>
<path d="M34.9461 35.0595C36.0211 35.1041 36.9287 34.2688 36.9733 33.1938C37.0178 32.1188 36.1825 31.2112 35.1076 31.1667C34.0326 31.1221 33.125 31.9574 33.0804 33.0324C33.0358 34.1073 33.8711 35.0149 34.9461 35.0595Z" fill="white"/>
<path d="M61 23.0859C59.7716 11.1593 51.4374 1.03646 34.7238 0.3433C17.0669 -0.388982 6.87958 9.28387 5.99971 22.0859L61 23.0859Z" fill="black"/>
<path d="M6.11082 22.3598L60.8498 22.9738" stroke="black" stroke-width="2.86671" stroke-miterlimit="10" stroke-linecap="round"/>
</svg>
